<svg xmlns="http://www.w3.org/2000/svg" xmlns:xlink="http://www.w3.org/1999/xlink" width="1920" zoomAndPan="magnify" viewBox="0 0 1440 1439.999935" height="1920" preserveAspectRatio="xMidYMid meet" version="1.0"><defs><clipPath id="e98ebdab23"><path d="M 704.835938 323 L 1192.875 323 L 1192.875 799 L 704.835938 799 Z M 704.835938 323 " clip-rule="nonzero"/></clipPath></defs><rect x="-144" width="1728" fill="#ffffff" y="-143.999994" height="1727.999922" fill-opacity="1"/><rect x="-144" width="1728" fill="#ffffff" y="-143.999994" height="1727.999922" fill-opacity="1"/><g clip-path="url(#e98ebdab23)"><path fill="#004aad" d="M 810.582031 649.886719 C 803.289062 641.464844 796.203125 632.933594 789.609375 624.066406 C 783.039062 615.183594 776.777344 606.128906 771.085938 596.773438 C 765.371094 587.433594 760.128906 577.855469 755.535156 568.027344 C 750.878906 558.230469 746.820312 548.195312 743.445312 537.988281 C 736.574219 517.597656 732.417969 496.507812 730.71875 475.300781 C 730.300781 469.996094 730.046875 464.6875 729.953125 459.367188 L 729.914062 457.378906 L 729.90625 455.445312 C 729.917969 454.289062 729.953125 452.992188 730.003906 451.777344 C 730.09375 449.308594 730.273438 446.855469 730.550781 444.414062 C 731.648438 434.671875 734.230469 425.246094 738.230469 416.546875 C 742.246094 407.855469 747.550781 399.839844 754.015625 392.875 C 760.472656 385.914062 768.027344 379.996094 776.277344 375.320312 C 792.738281 365.824219 811.972656 361.433594 830.925781 362.246094 C 849.929688 362.925781 868.632812 368.847656 885.308594 378.644531 C 902.082031 388.351562 916.894531 401.910156 929.402344 417.644531 L 944.199219 436.257812 L 960.320312 418.027344 C 971.015625 405.933594 982.960938 395.246094 996.035156 386.796875 C 1002.566406 382.574219 1009.367188 378.910156 1016.371094 375.910156 C 1023.347656 372.855469 1030.535156 370.457031 1037.828125 368.796875 C 1052.40625 365.46875 1067.453125 365.152344 1081.699219 368.09375 C 1095.949219 370.925781 1109.433594 377.007812 1120.558594 385.886719 C 1131.699219 394.746094 1140.410156 406.3125 1145.785156 419.382812 C 1148.476562 425.925781 1150.316406 432.84375 1151.289062 439.980469 C 1151.773438 443.550781 1152.050781 447.171875 1152.109375 450.824219 C 1152.136719 452.648438 1152.125 454.484375 1152.050781 456.320312 L 1151.980469 457.695312 L 1151.890625 459.355469 L 1151.699219 462.21875 C 1150.5625 478.101562 1147.308594 494.042969 1142.292969 509.597656 C 1137.246094 525.144531 1130.660156 540.394531 1122.71875 555.0625 C 1114.78125 569.75 1105.503906 583.839844 1095.382812 597.410156 C 1085.226562 610.964844 1074 623.820312 1062.152344 636.171875 C 1050.296875 648.53125 1037.609375 660.171875 1024.417969 671.3125 C 1011.238281 682.476562 997.390625 692.917969 983.167969 702.921875 C 954.679688 722.871094 924.355469 740.519531 892.914062 756.292969 C 877.183594 764.179688 861.160156 771.558594 844.910156 778.539062 C 836.773438 781.992188 828.613281 785.445312 820.375 788.71875 C 812.132812 791.996094 803.839844 795.152344 795.515625 798.300781 C 804.246094 796.589844 812.933594 794.640625 821.59375 792.542969 C 830.246094 790.453125 838.902344 788.273438 847.480469 785.800781 C 864.664062 780.960938 881.683594 775.410156 898.507812 769.207031 C 906.902344 766.085938 915.261719 762.820312 923.566406 759.371094 C 931.855469 755.914062 940.074219 752.265625 948.234375 748.453125 C 964.582031 740.875 980.554688 732.441406 996.214844 723.355469 C 1011.878906 714.261719 1027.078125 704.289062 1041.851562 693.621094 C 1056.597656 682.921875 1070.753906 671.320312 1084.316406 658.933594 C 1097.878906 646.554688 1110.605469 633.164062 1122.519531 618.960938 C 1134.433594 604.75 1145.320312 589.542969 1154.917969 573.390625 C 1164.515625 557.25 1172.867188 540.15625 1179.214844 522.109375 C 1185.597656 504.097656 1190.121094 485.175781 1192.070312 465.71875 L 1192.386719 461.949219 L 1192.640625 458.347656 C 1192.792969 455.761719 1192.859375 453.167969 1192.871094 450.558594 C 1192.871094 445.34375 1192.574219 440.097656 1191.960938 434.871094 C 1190.730469 424.414062 1188.1875 414.003906 1184.3125 404.074219 C 1180.449219 394.140625 1175.285156 384.660156 1168.933594 376.070312 C 1162.585938 367.480469 1155.125 359.75 1146.851562 353.089844 C 1130.308594 339.738281 1110.574219 330.761719 1090.078125 326.609375 C 1069.542969 322.5 1048.328125 323.175781 1028.375 327.863281 C 1018.390625 330.191406 1008.710938 333.503906 999.46875 337.605469 C 990.238281 341.757812 981.476562 346.707031 973.214844 352.257812 C 956.675781 363.375 942.210938 376.851562 929.722656 391.566406 L 960.644531 391.945312 C 945.011719 373.429688 926.125 356.910156 904.066406 344.996094 C 882.058594 333.128906 856.851562 326.222656 831.402344 326.363281 C 806 326.511719 780.582031 333.800781 759.238281 347.65625 C 748.597656 354.613281 739 363.183594 730.972656 373.039062 C 722.960938 382.890625 716.476562 394.019531 712.121094 405.878906 C 707.710938 417.730469 705.316406 430.21875 704.867188 442.609375 C 704.75 445.707031 704.757812 448.796875 704.867188 451.875 C 704.929688 453.4375 705.019531 454.910156 705.148438 456.527344 L 705.34375 458.75 L 705.570312 460.910156 C 706.164062 466.667969 706.929688 472.410156 707.875 478.117188 C 711.566406 500.96875 718.347656 523.257812 727.757812 544.164062 C 732.5 554.597656 737.890625 564.699219 743.847656 574.386719 C 749.855469 584.050781 756.386719 593.332031 763.421875 602.15625 C 770.472656 610.964844 777.941406 619.378906 785.867188 627.296875 C 793.773438 635.238281 801.980469 642.804688 810.582031 649.886719 " fill-opacity="1" fill-rule="nonzero"/></g><path fill="#ffde59" d="M 353.082031 889.160156 C 353.082031 899.789062 344.46875 908.398438 333.847656 908.398438 C 323.222656 908.398438 314.609375 899.789062 314.609375 889.160156 C 314.609375 878.53125 323.222656 869.921875 333.847656 869.921875 C 344.46875 869.921875 353.082031 878.53125 353.082031 889.160156 " fill-opacity="1" fill-rule="nonzero"/><path fill="#ffde59" d="M 361.21875 601.523438 C 340.390625 600.394531 318.996094 605.941406 300.917969 617.144531 C 281.828125 628.976562 267.792969 646.441406 261.394531 666.332031 C 247.105469 710.730469 270.949219 745.640625 298.855469 776.746094 C 304.292969 782.808594 310.035156 788.824219 315.585938 794.628906 C 335.988281 816.003906 360.222656 834.664062 371.363281 859.496094 C 391.417969 904.203125 336.445312 900.699219 336.445312 900.699219 L 333.847656 908.398438 C 334.414062 908.695312 334.980469 908.964844 335.542969 909.222656 C 365.863281 923.304688 399.492188 896.640625 393.414062 863.765625 C 392.734375 860.113281 391.75 856.421875 390.457031 852.734375 C 379.5 821.355469 357.21875 798.023438 335.671875 775.453125 C 330.023438 769.539062 324.683594 763.941406 319.527344 758.195312 C 293.675781 729.378906 278.394531 704.175781 287.832031 674.839844 C 296.757812 647.109375 327.652344 627.511719 359.703125 629.261719 C 395.808594 631.230469 432.617188 658.101562 469.109375 709.136719 L 491.699219 692.972656 C 449.472656 633.921875 406.792969 604.007812 361.21875 601.523438 " fill-opacity="1" fill-rule="nonzero"/><path fill="#ffde59" d="M 629.824219 1082.71875 C 618.949219 1084.722656 609.121094 1085.574219 600.273438 1085.574219 C 575.660156 1085.574219 558.644531 1079.003906 547.824219 1072.484375 C 531.539062 1062.667969 525.25 1050.875 524.988281 1050.386719 C 523.820312 1048.144531 524.6875 1045.378906 526.925781 1044.210938 C 529.152344 1043.054688 531.90625 1043.914062 533.078125 1046.128906 C 533.191406 1046.339844 538.796875 1056.535156 553.050781 1064.957031 C 572.148438 1076.246094 598.121094 1079.273438 628.160156 1073.730469 C 630.648438 1073.289062 633.027344 1074.90625 633.484375 1077.394531 C 633.945312 1079.878906 632.300781 1082.261719 629.824219 1082.71875 Z M 704.796875 994.484375 C 699.691406 990.519531 695.511719 985.703125 692.050781 980.339844 C 680.40625 983.277344 669.042969 985.121094 658.125 985.625 C 653.121094 985.859375 648.074219 985.984375 643.140625 985.984375 C 622.53125 985.984375 602.671875 983.992188 583.621094 980.042969 C 580.125 985.515625 575.875 990.449219 570.675781 994.484375 C 553.066406 1008.15625 499.085938 1036.953125 507.617188 1057.542969 C 532.511719 1117.648438 742.960938 1117.648438 767.855469 1057.542969 C 776.378906 1036.953125 722.394531 1008.15625 704.796875 994.484375 " fill-opacity="1" fill-rule="nonzero"/><path fill="#ffde59" d="M 593.488281 614.738281 C 600.785156 622.03125 606.179688 630.871094 609.394531 640.480469 C 614.660156 640.109375 619.972656 639.921875 625.316406 639.921875 C 637.636719 639.921875 649.875 640.921875 661.894531 642.617188 C 664.992188 632.1875 670.652344 622.570312 678.496094 614.738281 L 687.886719 605.347656 C 690.550781 602.683594 690.550781 598.355469 687.886719 595.683594 L 640.820312 548.628906 C 638.152344 545.957031 633.824219 545.957031 631.160156 548.628906 L 584.097656 595.683594 C 581.433594 598.355469 581.433594 602.683594 584.097656 605.347656 L 593.488281 614.738281 " fill-opacity="1" fill-rule="nonzero"/><path fill="#ffde59" d="M 660.835938 726.207031 C 708.9375 726.207031 761.1875 718.054688 816.304688 701.953125 C 816.304688 701.953125 806.15625 698.273438 803.683594 697.339844 C 798.800781 695.519531 793.953125 693.652344 789.097656 691.769531 C 779.992188 688.210938 770.929688 684.5625 761.839844 680.957031 C 707.820312 659.503906 650.117188 642.371094 591.179688 651.855469 C 558.003906 657.195312 527.59375 668.140625 499.082031 685.839844 C 525.007812 701.890625 577.957031 726.214844 660.835938 726.207031 " fill-opacity="1" fill-rule="nonzero"/><path fill="#ffde59" d="M 472.714844 733.902344 C 472.410156 734.175781 455.699219 749.179688 446.371094 773.667969 C 433.953125 806.273438 439.84375 839.628906 463.875 872.839844 C 465.484375 875.070312 464.984375 878.175781 462.761719 879.792969 C 461.875 880.429688 460.859375 880.738281 459.84375 880.738281 C 458.300781 880.738281 456.785156 880.023438 455.808594 878.671875 C 423.136719 833.542969 427.667969 794.507812 437.226562 769.71875 C 447.53125 742.96875 465.390625 727.082031 466.144531 726.425781 C 468.210938 724.605469 471.351562 724.816406 473.167969 726.882812 C 474.984375 728.949219 474.777344 732.085938 472.714844 733.902344 Z M 1014.210938 677.796875 C 964.941406 699.257812 900.847656 730.488281 831.246094 707.117188 C 640.53125 766.414062 532.222656 718.519531 490.476562 691.351562 C 403.074219 749.277344 401.742188 810.886719 426.179688 858.882812 C 445.175781 896.199219 519.289062 982.832031 657.695312 976.375 C 792.699219 970.082031 1023.472656 742.292969 1062.660156 677.796875 L 1014.210938 677.796875 " fill-opacity="1" fill-rule="nonzero"/><path fill="#00c4cc" d="M 824.757812 591.292969 C 839.09375 591.292969 853.433594 591.292969 867.769531 591.292969 C 870.226562 591.292969 872.238281 589.65625 872.953125 587.382812 C 881.914062 558.988281 890.875 530.59375 899.839844 502.199219 C 896.382812 502.199219 892.925781 502.199219 889.46875 502.199219 C 900.222656 531.777344 910.976562 561.355469 921.730469 590.933594 C 923.441406 595.644531 930.710938 596.363281 932.097656 590.933594 C 944.046875 544.199219 955.996094 497.464844 967.941406 450.734375 C 964.488281 450.734375 961.03125 450.734375 957.574219 450.734375 C 968.925781 514.621094 980.273438 578.507812 991.625 642.398438 C 992.417969 646.859375 999.496094 647.675781 1001.453125 643.667969 C 1010.085938 626.007812 1018.714844 608.347656 1027.34375 590.679688 C 1029.496094 586.289062 1020.664062 591.292969 1026.472656 591.292969 C 1032.128906 591.292969 1037.789062 591.292969 1043.445312 591.292969 C 1053.585938 591.292969 1063.730469 591.292969 1073.875 591.292969 C 1080.808594 591.292969 1080.808594 580.644531 1073.875 580.644531 C 1057.148438 580.644531 1040.421875 580.644531 1023.695312 580.644531 C 1021.914062 580.644531 1019.855469 581.628906 1019.050781 583.28125 C 1010.089844 601.617188 1001.128906 619.957031 992.167969 638.296875 C 995.445312 638.71875 998.71875 639.140625 1001.996094 639.570312 C 990.640625 575.679688 979.292969 511.789062 967.941406 447.902344 C 966.996094 442.589844 958.820312 443.027344 957.574219 447.902344 C 945.625 494.636719 933.675781 541.367188 921.730469 588.101562 C 925.1875 588.101562 928.640625 588.101562 932.097656 588.101562 C 921.34375 558.523438 910.59375 528.945312 899.839844 499.367188 C 898.058594 494.464844 891.121094 494.136719 889.46875 499.367188 C 880.507812 527.761719 871.546875 556.15625 862.585938 584.554688 C 864.316406 583.25 866.042969 581.945312 867.769531 580.644531 C 853.433594 580.644531 839.09375 580.644531 824.757812 580.644531 C 817.820312 580.644531 817.820312 591.292969 824.757812 591.292969 Z M 824.757812 591.292969 " fill-opacity="1" fill-rule="nonzero"/></svg>