<svg xmlns="http://www.w3.org/2000/svg" xmlns:xlink="http://www.w3.org/1999/xlink" width="1920" zoomAndPan="magnify" viewBox="0 0 1440 1439.999935" height="1920" preserveAspectRatio="xMidYMid meet" version="1.0"><defs><g/><clipPath id="24c6d75c64"><path d="M 355.757812 412 L 1082.863281 412 L 1082.863281 740 L 355.757812 740 Z M 355.757812 412 " clip-rule="nonzero"/></clipPath></defs><rect x="-144" width="1728" fill="#ffffff" y="-143.999994" height="1727.999922" fill-opacity="1"/><rect x="-144" width="1728" fill="#ffffff" y="-143.999994" height="1727.999922" fill-opacity="1"/><g clip-path="url(#24c6d75c64)"><path fill="#004aad" d="M 355.757812 467.789062 C 437.34375 412.269531 522.632812 397.144531 623.6875 427.234375 C 673.089844 441.878906 717.664062 469.558594 751.457031 512.683594 C 765.457031 530.386719 776.5625 546.316406 792.652344 563.210938 C 824.03125 596.203125 852.675781 609.558594 890.976562 622.59375 C 912.21875 629.832031 918.652344 632.246094 940.21875 634.015625 C 985.113281 591.050781 1005.066406 598.9375 1029.527344 590.246094 C 1024.21875 554.203125 996.859375 537.949219 942.46875 548.730469 C 973.367188 523.625 1001.042969 518.316406 1022.285156 527.007812 C 1043.042969 535.535156 1055.113281 555.972656 1059.941406 582.84375 C 1062.03125 594.269531 1076.835938 612.613281 1083.917969 623.234375 C 1063.640625 613.097656 1049.964844 611.328125 1029.042969 617.765625 C 993.160156 628.707031 954.378906 678.429688 913.183594 703.375 C 862.652344 734.109375 821.136719 750.523438 762.402344 731.375 C 709.621094 714.15625 607.273438 714.476562 557.550781 731.210938 C 582.816406 705.304688 633.664062 685.511719 659.25 683.582031 C 716.378906 679.234375 768.675781 701.28125 824.515625 680.683594 C 806.332031 679.074219 792.171875 675.695312 779.296875 670.867188 C 716.21875 646.890625 640.90625 575.28125 587.640625 532.476562 C 566.5625 515.417969 544.355469 498.523438 530.355469 489.832031 C 487.390625 462.476562 429.457031 434.800781 355.273438 467.625 Z M 355.757812 467.789062 " fill-opacity="1" fill-rule="evenodd"/></g><path fill="#ffca0f" d="M 1038.859375 278.867188 C 973.042969 299.144531 928.308594 336.316406 902.078125 392.800781 C 876.976562 446.546875 872.628906 530.707031 886.308594 587.351562 C 860.722656 557.097656 819.527344 522.5 805.6875 468.109375 C 785.089844 387.007812 838.835938 329.074219 907.550781 295.441406 C 950.675781 274.363281 999.273438 265.511719 1038.859375 279.027344 Z M 1038.859375 278.867188 " fill-opacity="1" fill-rule="evenodd"/><g fill="#000000" fill-opacity="1"><g transform="translate(486.166317, 919.648877)"><g><path d="M 9.65625 -96.609375 L 36.984375 -96.609375 L 36.984375 -21.671875 L 83.078125 -21.671875 L 83.078125 0 L 9.65625 0 Z M 9.65625 -96.609375 "/></g></g></g><g fill="#000000" fill-opacity="1"><g transform="translate(593.957926, 919.648877)"><g><path d="M 74.390625 -18.765625 L 33.53125 -18.765625 L 25.953125 0 L -1.9375 0 L 40.71875 -96.609375 L 67.625 -96.609375 L 110.40625 0 L 81.984375 0 Z M 66.390625 -38.921875 L 53.96875 -69.828125 L 41.546875 -38.921875 Z M 66.390625 -38.921875 "/></g></g></g><g fill="#000000" fill-opacity="1"><g transform="translate(726.039925, 919.648877)"><g><path d="M 61.421875 -34.640625 L 61.421875 0 L 34.09375 0 L 34.09375 -35.0625 L -2.765625 -96.609375 L 26.078125 -96.609375 L 49 -58.25 L 71.90625 -96.609375 L 98.40625 -96.609375 Z M 61.421875 -34.640625 "/></g></g></g><g fill="#000000" fill-opacity="1"><g transform="translate(845.286665, 919.648877)"><g><path d="M 74.390625 -18.765625 L 33.53125 -18.765625 L 25.953125 0 L -1.9375 0 L 40.71875 -96.609375 L 67.625 -96.609375 L 110.40625 0 L 81.984375 0 Z M 66.390625 -38.921875 L 53.96875 -69.828125 L 41.546875 -38.921875 Z M 66.390625 -38.921875 "/></g></g></g><g fill="#000000" fill-opacity="1"><g transform="translate(372.698697, 1051.485553)"><g><path d="M 8.03125 -49.296875 L 13.234375 -49.296875 L 13.234375 -4.5 L 40.84375 -4.5 L 40.84375 0 L 8.03125 0 Z M 8.03125 -49.296875 "/></g></g></g><g fill="#000000" fill-opacity="1"><g transform="translate(429.453563, 1051.485553)"><g><path d="M 42.890625 -4.5 L 42.890625 0 L 8.03125 0 L 8.03125 -49.296875 L 41.828125 -49.296875 L 41.828125 -44.78125 L 13.234375 -44.78125 L 13.234375 -27.25 L 38.734375 -27.25 L 38.734375 -22.8125 L 13.234375 -22.8125 L 13.234375 -4.5 Z M 42.890625 -4.5 "/></g></g></g><g fill="#000000" fill-opacity="1"><g transform="translate(491.841092, 1051.485553)"><g><path d="M 42.75 -24.640625 L 47.75 -24.640625 L 47.75 -5.84375 C 45.445312 -3.820312 42.722656 -2.269531 39.578125 -1.1875 C 36.429688 -0.113281 33.117188 0.421875 29.640625 0.421875 C 24.710938 0.421875 20.273438 -0.65625 16.328125 -2.8125 C 12.390625 -4.976562 9.289062 -7.972656 7.03125 -11.796875 C 4.78125 -15.617188 3.65625 -19.898438 3.65625 -24.640625 C 3.65625 -29.390625 4.78125 -33.675781 7.03125 -37.5 C 9.289062 -41.320312 12.390625 -44.3125 16.328125 -46.46875 C 20.273438 -48.632812 24.738281 -49.71875 29.71875 -49.71875 C 33.476562 -49.71875 36.925781 -49.117188 40.0625 -47.921875 C 43.207031 -46.722656 45.863281 -44.953125 48.03125 -42.609375 L 44.78125 -39.296875 C 40.882812 -43.140625 35.929688 -45.0625 29.921875 -45.0625 C 25.929688 -45.0625 22.328125 -44.179688 19.109375 -42.421875 C 15.898438 -40.660156 13.378906 -38.21875 11.546875 -35.09375 C 9.710938 -31.976562 8.796875 -28.492188 8.796875 -24.640625 C 8.796875 -20.796875 9.710938 -17.320312 11.546875 -14.21875 C 13.378906 -11.125 15.890625 -8.679688 19.078125 -6.890625 C 22.273438 -5.109375 25.867188 -4.21875 29.859375 -4.21875 C 34.929688 -4.21875 39.226562 -5.488281 42.75 -8.03125 Z M 42.75 -24.640625 "/></g></g></g><g fill="#000000" fill-opacity="1"><g transform="translate(561.551079, 1051.485553)"><g><path d="M 38.9375 -13.171875 L 11.484375 -13.171875 L 5.5625 0 L 0.140625 0 L 22.671875 -49.296875 L 27.8125 -49.296875 L 50.359375 0 L 44.859375 0 Z M 37.046875 -17.390625 L 25.21875 -43.875 L 13.375 -17.390625 Z M 37.046875 -17.390625 "/></g></g></g><g fill="#000000" fill-opacity="1"><g transform="translate(627.318178, 1051.485553)"><g><path d="M 8.03125 -49.296875 L 13.234375 -49.296875 L 13.234375 -4.5 L 40.84375 -4.5 L 40.84375 0 L 8.03125 0 Z M 8.03125 -49.296875 "/></g></g></g><g fill="#000000" fill-opacity="1"><g transform="translate(684.073038, 1051.485553)"><g/></g></g><g fill="#000000" fill-opacity="1"><g transform="translate(717.804455, 1051.485553)"><g><path d="M 38.9375 -13.171875 L 11.484375 -13.171875 L 5.5625 0 L 0.140625 0 L 22.671875 -49.296875 L 27.8125 -49.296875 L 50.359375 0 L 44.859375 0 Z M 37.046875 -17.390625 L 25.21875 -43.875 L 13.375 -17.390625 Z M 37.046875 -17.390625 "/></g></g></g><g fill="#000000" fill-opacity="1"><g transform="translate(783.571555, 1051.485553)"><g><path d="M 8.03125 -49.296875 L 13.234375 -49.296875 L 13.234375 0 L 8.03125 0 Z M 8.03125 -49.296875 "/></g></g></g><g fill="#000000" fill-opacity="1"><g transform="translate(820.119328, 1051.485553)"><g><path d="M 8.03125 -49.296875 L 28.09375 -49.296875 C 33.3125 -49.296875 37.914062 -48.25 41.90625 -46.15625 C 45.894531 -44.070312 48.988281 -41.160156 51.1875 -37.421875 C 53.394531 -33.691406 54.5 -29.429688 54.5 -24.640625 C 54.5 -19.859375 53.394531 -15.597656 51.1875 -11.859375 C 48.988281 -8.128906 45.894531 -5.21875 41.90625 -3.125 C 37.914062 -1.039062 33.3125 0 28.09375 0 L 8.03125 0 Z M 27.8125 -4.5 C 32.132812 -4.5 35.914062 -5.351562 39.15625 -7.0625 C 42.394531 -8.78125 44.90625 -11.15625 46.6875 -14.1875 C 48.46875 -17.21875 49.359375 -20.703125 49.359375 -24.640625 C 49.359375 -28.585938 48.46875 -32.070312 46.6875 -35.09375 C 44.90625 -38.125 42.394531 -40.492188 39.15625 -42.203125 C 35.914062 -43.921875 32.132812 -44.78125 27.8125 -44.78125 L 13.234375 -44.78125 L 13.234375 -4.5 Z M 27.8125 -4.5 "/></g></g></g><g fill="#000000" fill-opacity="1"><g transform="translate(893.560951, 1051.485553)"><g/></g></g><g fill="#000000" fill-opacity="1"><g transform="translate(927.292393, 1051.485553)"><g><path d="M 38.9375 -13.171875 L 11.484375 -13.171875 L 5.5625 0 L 0.140625 0 L 22.671875 -49.296875 L 27.8125 -49.296875 L 50.359375 0 L 44.859375 0 Z M 37.046875 -17.390625 L 25.21875 -43.875 L 13.375 -17.390625 Z M 37.046875 -17.390625 "/></g></g></g><g fill="#000000" fill-opacity="1"><g transform="translate(993.059519, 1051.485553)"><g><path d="M 17.609375 -44.78125 L 0.28125 -44.78125 L 0.28125 -49.296875 L 40.140625 -49.296875 L 40.140625 -44.78125 L 22.8125 -44.78125 L 22.8125 0 L 17.609375 0 Z M 17.609375 -44.78125 "/></g></g></g><g fill="#000000" fill-opacity="1"><g transform="translate(1048.808364, 1051.485553)"><g/></g></g><g fill="#000000" fill-opacity="1"><g transform="translate(386.403278, 1149.30264)"><g><path d="M 24.921875 -17.046875 L 24.921875 0 L 19.78125 0 L 19.78125 -17.046875 L 0.078125 -49.296875 L 5.640625 -49.296875 L 22.53125 -21.625 L 39.4375 -49.296875 L 44.640625 -49.296875 Z M 24.921875 -17.046875 "/></g></g></g><g fill="#000000" fill-opacity="1"><g transform="translate(446.396924, 1149.30264)"><g><path d="M 29.578125 0.421875 C 24.691406 0.421875 20.265625 -0.664062 16.296875 -2.84375 C 12.335938 -5.03125 9.238281 -8.023438 7 -11.828125 C 4.769531 -15.628906 3.65625 -19.898438 3.65625 -24.640625 C 3.65625 -29.390625 4.769531 -33.664062 7 -37.46875 C 9.238281 -41.269531 12.335938 -44.257812 16.296875 -46.4375 C 20.265625 -48.625 24.691406 -49.71875 29.578125 -49.71875 C 34.460938 -49.71875 38.863281 -48.632812 42.78125 -46.46875 C 46.695312 -44.3125 49.78125 -41.320312 52.03125 -37.5 C 54.289062 -33.675781 55.421875 -29.390625 55.421875 -24.640625 C 55.421875 -19.898438 54.289062 -15.617188 52.03125 -11.796875 C 49.78125 -7.972656 46.695312 -4.976562 42.78125 -2.8125 C 38.863281 -0.65625 34.460938 0.421875 29.578125 0.421875 Z M 29.578125 -4.21875 C 33.472656 -4.21875 36.992188 -5.097656 40.140625 -6.859375 C 43.285156 -8.617188 45.75 -11.0625 47.53125 -14.1875 C 49.3125 -17.3125 50.203125 -20.796875 50.203125 -24.640625 C 50.203125 -28.492188 49.3125 -31.976562 47.53125 -35.09375 C 45.75 -38.21875 43.285156 -40.660156 40.140625 -42.421875 C 36.992188 -44.179688 33.472656 -45.0625 29.578125 -45.0625 C 25.679688 -45.0625 22.144531 -44.179688 18.96875 -42.421875 C 15.800781 -40.660156 13.3125 -38.21875 11.5 -35.09375 C 9.695312 -31.976562 8.796875 -28.492188 8.796875 -24.640625 C 8.796875 -20.796875 9.695312 -17.3125 11.5 -14.1875 C 13.3125 -11.0625 15.800781 -8.617188 18.96875 -6.859375 C 22.144531 -5.097656 25.679688 -4.21875 29.578125 -4.21875 Z M 29.578125 -4.21875 "/></g></g></g><g fill="#000000" fill-opacity="1"><g transform="translate(520.753821, 1149.30264)"><g><path d="M 27.890625 0.421875 C 21.503906 0.421875 16.523438 -1.40625 12.953125 -5.0625 C 9.390625 -8.726562 7.609375 -14.0625 7.609375 -21.0625 L 7.609375 -49.296875 L 12.8125 -49.296875 L 12.8125 -21.265625 C 12.8125 -15.535156 14.101562 -11.257812 16.6875 -8.4375 C 19.269531 -5.625 23.003906 -4.21875 27.890625 -4.21875 C 32.816406 -4.21875 36.570312 -5.625 39.15625 -8.4375 C 41.738281 -11.257812 43.03125 -15.535156 43.03125 -21.265625 L 43.03125 -49.296875 L 48.09375 -49.296875 L 48.09375 -21.0625 C 48.09375 -14.0625 46.320312 -8.726562 42.78125 -5.0625 C 39.238281 -1.40625 34.273438 0.421875 27.890625 0.421875 Z M 27.890625 0.421875 "/></g></g></g><g fill="#000000" fill-opacity="1"><g transform="translate(591.801547, 1149.30264)"><g><path d="M 41.6875 0 L 30.421875 -15.84375 C 29.148438 -15.707031 27.835938 -15.640625 26.484375 -15.640625 L 13.234375 -15.640625 L 13.234375 0 L 8.03125 0 L 8.03125 -49.296875 L 26.484375 -49.296875 C 32.773438 -49.296875 37.703125 -47.789062 41.265625 -44.78125 C 44.835938 -41.78125 46.625 -37.648438 46.625 -32.390625 C 46.625 -28.546875 45.648438 -25.296875 43.703125 -22.640625 C 41.753906 -19.984375 38.972656 -18.070312 35.359375 -16.90625 L 47.390625 0 Z M 26.34375 -20.0625 C 31.21875 -20.0625 34.945312 -21.140625 37.53125 -23.296875 C 40.113281 -25.460938 41.40625 -28.492188 41.40625 -32.390625 C 41.40625 -36.378906 40.113281 -39.441406 37.53125 -41.578125 C 34.945312 -43.710938 31.21875 -44.78125 26.34375 -44.78125 L 13.234375 -44.78125 L 13.234375 -20.0625 Z M 26.34375 -20.0625 "/></g></g></g><g fill="#000000" fill-opacity="1"><g transform="translate(657.991093, 1149.30264)"><g/></g></g><g fill="#000000" fill-opacity="1"><g transform="translate(691.72251, 1149.30264)"><g><path d="M 38.9375 -13.171875 L 11.484375 -13.171875 L 5.5625 0 L 0.140625 0 L 22.671875 -49.296875 L 27.8125 -49.296875 L 50.359375 0 L 44.859375 0 Z M 37.046875 -17.390625 L 25.21875 -43.875 L 13.375 -17.390625 Z M 37.046875 -17.390625 "/></g></g></g><g fill="#000000" fill-opacity="1"><g transform="translate(757.48961, 1149.30264)"><g><path d="M 29.4375 0.421875 C 24.550781 0.421875 20.148438 -0.65625 16.234375 -2.8125 C 12.316406 -4.976562 9.238281 -7.972656 7 -11.796875 C 4.769531 -15.617188 3.65625 -19.898438 3.65625 -24.640625 C 3.65625 -29.390625 4.769531 -33.675781 7 -37.5 C 9.238281 -41.320312 12.328125 -44.3125 16.265625 -46.46875 C 20.210938 -48.632812 24.625 -49.71875 29.5 -49.71875 C 33.164062 -49.71875 36.546875 -49.109375 39.640625 -47.890625 C 42.742188 -46.671875 45.375 -44.882812 47.53125 -42.53125 L 44.21875 -39.21875 C 40.375 -43.113281 35.515625 -45.0625 29.640625 -45.0625 C 25.742188 -45.0625 22.195312 -44.171875 19 -42.390625 C 15.8125 -40.609375 13.3125 -38.164062 11.5 -35.0625 C 9.695312 -31.96875 8.796875 -28.492188 8.796875 -24.640625 C 8.796875 -20.796875 9.695312 -17.320312 11.5 -14.21875 C 13.3125 -11.125 15.8125 -8.679688 19 -6.890625 C 22.195312 -5.109375 25.742188 -4.21875 29.640625 -4.21875 C 35.554688 -4.21875 40.414062 -6.191406 44.21875 -10.140625 L 47.53125 -6.828125 C 45.375 -4.484375 42.734375 -2.6875 39.609375 -1.4375 C 36.484375 -0.195312 33.09375 0.421875 29.4375 0.421875 Z M 29.4375 0.421875 "/></g></g></g><g fill="#000000" fill-opacity="1"><g transform="translate(823.39756, 1149.30264)"><g><path d="M 29.4375 0.421875 C 24.550781 0.421875 20.148438 -0.65625 16.234375 -2.8125 C 12.316406 -4.976562 9.238281 -7.972656 7 -11.796875 C 4.769531 -15.617188 3.65625 -19.898438 3.65625 -24.640625 C 3.65625 -29.390625 4.769531 -33.675781 7 -37.5 C 9.238281 -41.320312 12.328125 -44.3125 16.265625 -46.46875 C 20.210938 -48.632812 24.625 -49.71875 29.5 -49.71875 C 33.164062 -49.71875 36.546875 -49.109375 39.640625 -47.890625 C 42.742188 -46.671875 45.375 -44.882812 47.53125 -42.53125 L 44.21875 -39.21875 C 40.375 -43.113281 35.515625 -45.0625 29.640625 -45.0625 C 25.742188 -45.0625 22.195312 -44.171875 19 -42.390625 C 15.8125 -40.609375 13.3125 -38.164062 11.5 -35.0625 C 9.695312 -31.96875 8.796875 -28.492188 8.796875 -24.640625 C 8.796875 -20.796875 9.695312 -17.320312 11.5 -14.21875 C 13.3125 -11.125 15.8125 -8.679688 19 -6.890625 C 22.195312 -5.109375 25.742188 -4.21875 29.640625 -4.21875 C 35.554688 -4.21875 40.414062 -6.191406 44.21875 -10.140625 L 47.53125 -6.828125 C 45.375 -4.484375 42.734375 -2.6875 39.609375 -1.4375 C 36.484375 -0.195312 33.09375 0.421875 29.4375 0.421875 Z M 29.4375 0.421875 "/></g></g></g><g fill="#000000" fill-opacity="1"><g transform="translate(889.305533, 1149.30264)"><g><path d="M 42.890625 -4.5 L 42.890625 0 L 8.03125 0 L 8.03125 -49.296875 L 41.828125 -49.296875 L 41.828125 -44.78125 L 13.234375 -44.78125 L 13.234375 -27.25 L 38.734375 -27.25 L 38.734375 -22.8125 L 13.234375 -22.8125 L 13.234375 -4.5 Z M 42.890625 -4.5 "/></g></g></g><g fill="#000000" fill-opacity="1"><g transform="translate(951.693082, 1149.30264)"><g><path d="M 21.625 0.421875 C 17.957031 0.421875 14.445312 -0.160156 11.09375 -1.328125 C 7.738281 -2.503906 5.144531 -4.054688 3.3125 -5.984375 L 5.359375 -10 C 7.140625 -8.21875 9.507812 -6.773438 12.46875 -5.671875 C 15.425781 -4.566406 18.476562 -4.015625 21.625 -4.015625 C 26.03125 -4.015625 29.335938 -4.820312 31.546875 -6.4375 C 33.753906 -8.0625 34.859375 -10.164062 34.859375 -12.75 C 34.859375 -14.71875 34.257812 -16.285156 33.0625 -17.453125 C 31.863281 -18.628906 30.394531 -19.535156 28.65625 -20.171875 C 26.925781 -20.804688 24.507812 -21.5 21.40625 -22.25 C 17.695312 -23.1875 14.738281 -24.085938 12.53125 -24.953125 C 10.320312 -25.828125 8.429688 -27.15625 6.859375 -28.9375 C 5.285156 -30.726562 4.5 -33.148438 4.5 -36.203125 C 4.5 -38.679688 5.15625 -40.941406 6.46875 -42.984375 C 7.789062 -45.035156 9.8125 -46.671875 12.53125 -47.890625 C 15.257812 -49.109375 18.640625 -49.71875 22.671875 -49.71875 C 25.492188 -49.71875 28.253906 -49.328125 30.953125 -48.546875 C 33.648438 -47.773438 35.984375 -46.710938 37.953125 -45.359375 L 36.203125 -41.203125 C 34.128906 -42.554688 31.921875 -43.570312 29.578125 -44.25 C 27.234375 -44.9375 24.929688 -45.28125 22.671875 -45.28125 C 18.359375 -45.28125 15.109375 -44.445312 12.921875 -42.78125 C 10.734375 -41.113281 9.640625 -38.96875 9.640625 -36.34375 C 9.640625 -34.363281 10.238281 -32.773438 11.4375 -31.578125 C 12.632812 -30.378906 14.132812 -29.460938 15.9375 -28.828125 C 17.75 -28.203125 20.179688 -27.515625 23.234375 -26.765625 C 26.847656 -25.867188 29.769531 -24.984375 32 -24.109375 C 34.238281 -23.242188 36.128906 -21.929688 37.671875 -20.171875 C 39.222656 -18.410156 40 -16.03125 40 -13.03125 C 40 -10.539062 39.328125 -8.273438 37.984375 -6.234375 C 36.648438 -4.191406 34.597656 -2.570312 31.828125 -1.375 C 29.054688 -0.175781 25.65625 0.421875 21.625 0.421875 Z M 21.625 0.421875 "/></g></g></g><g fill="#000000" fill-opacity="1"><g transform="translate(1010.278605, 1149.30264)"><g><path d="M 21.625 0.421875 C 17.957031 0.421875 14.445312 -0.160156 11.09375 -1.328125 C 7.738281 -2.503906 5.144531 -4.054688 3.3125 -5.984375 L 5.359375 -10 C 7.140625 -8.21875 9.507812 -6.773438 12.46875 -5.671875 C 15.425781 -4.566406 18.476562 -4.015625 21.625 -4.015625 C 26.03125 -4.015625 29.335938 -4.820312 31.546875 -6.4375 C 33.753906 -8.0625 34.859375 -10.164062 34.859375 -12.75 C 34.859375 -14.71875 34.257812 -16.285156 33.0625 -17.453125 C 31.863281 -18.628906 30.394531 -19.535156 28.65625 -20.171875 C 26.925781 -20.804688 24.507812 -21.5 21.40625 -22.25 C 17.695312 -23.1875 14.738281 -24.085938 12.53125 -24.953125 C 10.320312 -25.828125 8.429688 -27.15625 6.859375 -28.9375 C 5.285156 -30.726562 4.5 -33.148438 4.5 -36.203125 C 4.5 -38.679688 5.15625 -40.941406 6.46875 -42.984375 C 7.789062 -45.035156 9.8125 -46.671875 12.53125 -47.890625 C 15.257812 -49.109375 18.640625 -49.71875 22.671875 -49.71875 C 25.492188 -49.71875 28.253906 -49.328125 30.953125 -48.546875 C 33.648438 -47.773438 35.984375 -46.710938 37.953125 -45.359375 L 36.203125 -41.203125 C 34.128906 -42.554688 31.921875 -43.570312 29.578125 -44.25 C 27.234375 -44.9375 24.929688 -45.28125 22.671875 -45.28125 C 18.359375 -45.28125 15.109375 -44.445312 12.921875 -42.78125 C 10.734375 -41.113281 9.640625 -38.96875 9.640625 -36.34375 C 9.640625 -34.363281 10.238281 -32.773438 11.4375 -31.578125 C 12.632812 -30.378906 14.132812 -29.460938 15.9375 -28.828125 C 17.75 -28.203125 20.179688 -27.515625 23.234375 -26.765625 C 26.847656 -25.867188 29.769531 -24.984375 32 -24.109375 C 34.238281 -23.242188 36.128906 -21.929688 37.671875 -20.171875 C 39.222656 -18.410156 40 -16.03125 40 -13.03125 C 40 -10.539062 39.328125 -8.273438 37.984375 -6.234375 C 36.648438 -4.191406 34.597656 -2.570312 31.828125 -1.375 C 29.054688 -0.175781 25.65625 0.421875 21.625 0.421875 Z M 21.625 0.421875 "/></g></g></g></svg>